<svg id="Capa_1" enable-background="new 0 0 512 512" height="512" viewBox="0 0 512 512" width="512" xmlns="http://www.w3.org/2000/svg"><path d="m359.591 169.787c-126.988 0-202.882 129.965-261.373 148.187-4.614-17.807-18.961-31.995-37.649-35.905l-30.068-6.292c-11.86-2.482-23.001 6.57-23.001 18.686 0 25.634 15.897 48.152 39.193 57.131-23.296 8.98-39.193 31.498-39.193 57.132 0 12.117 11.142 21.168 23.001 18.687l30.068-6.292c19.175-4.013 33.781-18.845 37.99-37.306 69.85 7.078 199.455 63.051 261.032 63.051 80.031 0 144.909-62.026 144.909-138.539s-64.878-138.54-144.909-138.54z" fill="#8eafe2"/><path d="m7.5 408.726c0 12.117 11.142 21.168 23.001 18.687l30.068-6.292c19.175-4.013 33.781-18.845 37.99-37.306 43.601 4.418 110.484 27.887 169.572 44.902-71.775-50.03-73.316-138.493-54.621-199.953-47.041 36.948-83.707 79.37-115.293 89.21-4.614-17.807-18.961-31.995-37.649-35.905l-30.068-6.292c-11.86-2.482-23.001 6.57-23.001 18.686 0 25.634 15.897 48.152 39.193 57.131-23.295 8.98-39.192 31.498-39.192 57.132z" fill="#6a96d7"/><path d="m133.811 390c72.153 16.509 173.491 56.866 225.78 56.866 70.156 0 128.663-47.664 142.035-110.967-149.694-47.427-227.769 51.053-367.815 54.101z" fill="#fcf2d0"/><path d="m221.552 375.875c-27.081 7.762-55.796 13.429-87.741 14.125 40.223 9.203 89.513 25.816 134.322 38.718-21.25-14.812-36.347-32.991-46.581-52.843z" fill="#f6e3a3"/><ellipse cx="345.049" cy="281.553" fill="#fff" rx="23.001" ry="18.317"/><ellipse cx="469.72" cy="281.553" fill="#fff" rx="23.001" ry="18.317"/><path d="m238.314 383.003c-12.763 0-22.297-11.736-19.683-24.229l6.628-31.674c5.038-24.077 26.267-41.323 50.865-41.323 18.021 0 31.483 16.57 27.792 34.209l-2.451 11.713c-6.255 29.893-32.611 51.305-63.151 51.304z" fill="#6a96d7"/><path d="m363.521 329.717c-1.252 20.963-7.75 38.663-19.43 52.712-18.74 22.541-51.014 36.111-95.972 40.392 11.236 3.371 22.322 6.618 33.059 9.576 32.882-7.355 57.732-20.959 74.11-40.66 14.438-17.366 22.125-39.179 22.948-64.927-4.956.848-9.855 1.829-14.715 2.907z" fill="#f6e3a3"/><path d="m347.992 446.295c4.083.369 7.963.57 11.599.57 13.726 0 27.003-1.832 39.587-5.242 42.113-24.427 62.064-64.107 57.658-116.08-5.001-.717-9.932-1.287-14.785-1.691 6.479 63.109-25.773 105.129-94.059 122.443z" fill="#f6e3a3"/><path d="m299.854 127.571c-4.142 0-7.5 3.357-7.5 7.5v14.565c0 4.143 3.358 7.5 7.5 7.5s7.5-3.357 7.5-7.5v-14.565c0-4.142-3.357-7.5-7.5-7.5zm-34.91-54.936c15.114 0 27.41 12.296 27.41 27.41v6.657c0 4.143 3.358 7.5 7.5 7.5s7.5-3.357 7.5-7.5v-6.657c0-15.114 12.296-27.41 27.41-27.41 4.142 0 7.5-3.358 7.5-7.5 0-4.143-3.358-7.5-7.5-7.5-14.458 0-27.251 7.273-34.91 18.353-7.659-11.08-20.452-18.353-34.91-18.353-4.142 0-7.5 3.357-7.5 7.5 0 4.142 3.358 7.5 7.5 7.5zm-245.662 212.833c2.721-2.211 6.248-3.067 9.683-2.35l30.067 6.292c15.676 3.28 27.909 14.946 31.925 30.445.515 1.987 1.821 3.676 3.614 4.674 1.794.997 3.918 1.218 5.877.605 22.253-6.933 45.722-27.903 72.898-52.186 33.153-29.623 70.729-63.199 116.755-81.764 3.842-1.549 5.7-5.919 4.15-9.761-1.549-3.841-5.919-5.699-9.761-4.149-48.455 19.543-87.07 54.047-121.139 84.489-22.86 20.426-42.966 38.392-60.545 46.413-7.174-17.063-22.166-29.571-40.702-33.449l-30.067-6.292c-7.874-1.647-15.97.316-22.214 5.389-6.242 5.073-9.823 12.596-9.823 20.64 0 23.089 11.838 44.54 30.56 57.131-18.722 12.591-30.56 34.043-30.56 57.131 0 8.045 3.581 15.567 9.825 20.64 4.796 3.896 10.685 5.958 16.726 5.958 1.823 0 3.661-.188 5.487-.57l12.979-2.716c4.054-.849 6.653-4.822 5.805-8.877s-4.824-6.652-8.877-5.805l-12.979 2.716c-3.432.716-6.96-.137-9.682-2.349-2.722-2.211-4.283-5.49-4.283-8.997 0-22.058 13.82-42.204 34.39-50.133 2.894-1.115 4.803-3.897 4.803-6.998 0-3.102-1.909-5.883-4.803-6.998-20.571-7.928-34.391-28.075-34.391-50.133 0-3.507 1.561-6.785 4.282-8.996zm388.102-8.45c7.112 0 13.875-3.08 18.555-8.449 2.721-3.123 2.396-7.861-.727-10.582-3.123-2.722-7.86-2.396-10.582.727-1.83 2.101-4.471 3.305-7.246 3.305s-5.416-1.204-7.246-3.305c-2.721-3.122-7.46-3.447-10.582-.727-3.123 2.721-3.448 7.459-.727 10.582 4.68 5.369 11.443 8.449 18.555 8.449zm56.431-13.737v-8.123c0-4.143-3.358-7.5-7.5-7.5s-7.5 3.357-7.5 7.5v8.123c0 4.142 3.358 7.5 7.5 7.5s7.5-3.357 7.5-7.5zm-97.862 0v-8.123c0-4.143-3.358-7.5-7.5-7.5s-7.5 3.357-7.5 7.5v8.123c0 4.142 3.358 7.5 7.5 7.5s7.5-3.357 7.5-7.5zm-6.362-100.994c-12.722 0-25.53 1.279-38.066 3.803-4.061.817-6.69 4.771-5.873 8.832s4.771 6.693 8.833 5.873c11.564-2.327 23.376-3.508 35.106-3.508 75.768 0 137.409 58.784 137.409 131.039 0 6.089-.448 12.08-1.295 17.95-73.077-21.004-129.652-8.14-188.192 12.103.487-1.69.928-3.401 1.293-5.144l2.451-11.713c1.966-9.396.152-18.986-5.109-27.006-2.272-3.464-6.922-4.427-10.385-2.158-3.463 2.272-4.429 6.922-2.157 10.385 3.059 4.663 4.113 10.241 2.969 15.707l-2.451 11.713c-5.497 26.272-28.969 45.34-55.81 45.339-3.808 0-7.369-1.693-9.774-4.644-.012-.015-.023-.031-.036-.046-2.386-2.957-3.311-6.782-2.532-10.502l6.628-31.674c1.992-9.518 6.927-17.941 14.271-24.357 3.119-2.726 3.439-7.464.713-10.583s-7.464-3.438-10.583-.714c-9.82 8.579-16.419 19.846-19.084 32.582l-6.628 31.674c-.956 4.565-.739 9.202.554 13.537-27.429 7.338-52.248 11.085-77.355 11.7-12.75-2.892-24.635-5.055-35.174-6.123-3.765-.374-7.227 2.104-8.069 5.795-2.455 10.765-9.237 20.302-18.608 26.164-3.512 2.197-4.578 6.824-2.381 10.336s6.823 4.578 10.336 2.381c10.799-6.756 19.068-17.104 23.364-29.02 31.386 4.248 74.304 17.359 115.893 30.064 51.967 15.876 105.705 32.292 139.741 32.292 73.572 0 135.133-50.21 149.327-116.747.037-.158.068-.316.095-.475 1.954-9.319 2.986-18.954 2.986-28.817.002-80.525-68.368-146.038-152.407-146.038zm0 277.078c-31.797 0-84.444-16.084-135.359-31.638-15.762-4.815-31.71-9.686-47.211-14.131 14.001-2.223 28.346-5.411 43.46-9.63 4.942 4.195 11.214 6.537 17.833 6.537h.002c24.944 0 47.573-13.05 60.561-33.16 63.423-22.851 118.666-38.281 193.795-16.33-15.266 56.492-69.143 98.352-133.081 98.352z"/></svg>